<?xml version="1.0" encoding="UTF-8" standalone="no"?>
<!-- Created with Inkscape (http://www.inkscape.org/) -->
<svg xmlns:dc="http://purl.org/dc/elements/1.1/" xmlns:cc="http://web.resource.org/cc/" xmlns:rdf="http://www.w3.org/1999/02/22-rdf-syntax-ns#" xmlns:svg="http://www.w3.org/2000/svg" xmlns="http://www.w3.org/2000/svg" xmlns:xlink="http://www.w3.org/1999/xlink" xmlns:sodipodi="http://sodipodi.sourceforge.net/DTD/sodipodi-0.dtd" xmlns:inkscape="http://www.inkscape.org/namespaces/inkscape" width="233.6297" height="317.00192" id="svg2" sodipodi:version="0.32" inkscape:version="0.45.1" version="1.0" sodipodi:docbase="D:\Documents and Settings\Joanna\My Documents\My Pictures\graph_vector" sodipodi:docname="papapishu_wizard_in_blue_hat.svg" inkscape:output_extension="org.inkscape.output.svg.inkscape" inkscape:export-filename="D:\Documents and Settings\Joanna\My Documents\My Pictures\graph_vector\papapishu_wizard_1.png" inkscape:export-xdpi="152.02286" inkscape:export-ydpi="152.02286">
  <defs id="defs4">
    <linearGradient id="linearGradient2213">
      <stop style="stop-color:#000000;stop-opacity:1;" offset="0" id="stop2215"/>
      <stop id="stop2223" offset="0.5" style="stop-color:#000000;stop-opacity:1;"/>
      <stop style="stop-color:#000000;stop-opacity:1;" offset="1" id="stop2217"/>
    </linearGradient>
    <linearGradient id="linearGradient2225">
      <stop style="stop-color:#000079;stop-opacity:1;" offset="0" id="stop2227"/>
      <stop id="stop2282" offset="1" style="stop-color:#000079;stop-opacity:1;"/>
    </linearGradient>
    <linearGradient inkscape:collect="always" xlink:href="#linearGradient2213" id="linearGradient5501" gradientUnits="userSpaceOnUse" gradientTransform="matrix(0.3123447,0,0,0.1897687,-754.43663,492.38302)" x1="160.35934" y1="586.86548" x2="585.07648" y2="633.03674"/>
    <linearGradient inkscape:collect="always" xlink:href="#linearGradient2225" id="linearGradient5504" gradientUnits="userSpaceOnUse" gradientTransform="matrix(0.3123447,0,0,0.2548918,-754.43663,443.64664)" x1="101.57983" y1="505.89154" x2="695.65436" y2="535.71051"/>
    <linearGradient inkscape:collect="always" xlink:href="#linearGradient2225" id="linearGradient5544" gradientUnits="userSpaceOnUse" gradientTransform="matrix(0.3123447,0,0,0.3690697,-754.8434,368.46808)" x1="431.39035" y1="1015.7707" x2="477.51135" y2="658.74127"/>
  </defs>
  <sodipodi:namedview id="base" pagecolor="#ffffff" bordercolor="#666666" borderopacity="1.0" gridtolerance="10000" guidetolerance="10" objecttolerance="10" inkscape:pageopacity="0.0" inkscape:pageshadow="2" inkscape:zoom="1.9049386" inkscape:cx="116.81485" inkscape:cy="158.50096" inkscape:document-units="px" inkscape:current-layer="layer1" inkscape:window-width="1280" inkscape:window-height="964" inkscape:window-x="0" inkscape:window-y="26"/>
  <metadata id="metadata7">
    <rdf:RDF>
      <cc:Work rdf:about="">
        <dc:format>image/svg+xml</dc:format>
        <dc:type rdf:resource="http://purl.org/dc/dcmitype/StillImage"/>
        <dc:title>wizard in blue hat</dc:title>
        <dc:date>13.08.2007</dc:date>
        <dc:creator>
          <cc:Agent>
            <dc:title>papapishu</dc:title>
          </cc:Agent>
        </dc:creator>
        <dc:subject>
          <rdf:Bag>
            <rdf:li>wizard</rdf:li>
            <rdf:li>sage</rdf:li>
            <rdf:li>hat</rdf:li>
            <rdf:li>old man</rdf:li>
          </rdf:Bag>
        </dc:subject>
        <dc:coverage>fantasy</dc:coverage>
        <dc:publisher>
          <cc:Agent>
            <dc:title>openclipart.org</dc:title>
          </cc:Agent>
        </dc:publisher>
        <dc:rights>
          <cc:Agent>
            <dc:title/>
          </cc:Agent>
        </dc:rights>
        <cc:license rdf:resource="http://web.resource.org/cc/PublicDomain"/>
        <dc:contributor>
          <cc:Agent>
            <dc:title>based on "santa line art" by Zeimusu and "Leprechaun's hat" by SRD</dc:title>
          </cc:Agent>
        </dc:contributor>
      </cc:Work>
      <cc:License rdf:about="http://web.resource.org/cc/PublicDomain">
        <cc:permits rdf:resource="http://web.resource.org/cc/Reproduction"/>
        <cc:permits rdf:resource="http://web.resource.org/cc/Distribution"/>
        <cc:permits rdf:resource="http://web.resource.org/cc/DerivativeWorks"/>
      </cc:License>
    </rdf:RDF>
  </metadata>
  <g inkscape:label="Layer 1" inkscape:groupmode="layer" id="layer1" transform="translate(755.1344,-455.33499)">
    <path style="fill:url(#linearGradient5504);fill-opacity:1;fill-rule:evenodd;stroke:#000000;stroke-width:2;stroke-linecap:butt;stroke-linejoin:miter;stroke-opacity:1;stroke-miterlimit:4;stroke-dasharray:none" d="M -700.01916,622.52113 C -700.01916,622.52113 -664.91581,505.85397 -631.67572,472.171 C -617.84024,458.15118 -600.78758,463.05248 -595.99541,466.6158 C -582.13008,476.92566 -577.02432,491.78919 -569.50998,504.35339 C -591.52215,499.03166 -584.13578,488.74349 -608.37147,490.86836 L -593.98061,623.09807 L -700.01916,622.52113 z " id="path2183" sodipodi:nodetypes="csscccc"/>
    <path style="fill:url(#linearGradient5501);fill-opacity:1;fill-rule:evenodd;stroke:none;stroke-width:1px;stroke-linecap:butt;stroke-linejoin:miter;stroke-opacity:1" d="M -701.34479,628.49582 L -690.79225,592.96698 C -675.08977,587.31369 -641.30001,587.62415 -597.20951,598.77623 L -592.91036,632.82587 L -701.34479,628.49582 z " id="path2185" sodipodi:nodetypes="ccccc"/>
    <path id="path2187" style="fill:#ffcd00;fill-opacity:1;fill-rule:evenodd;stroke:#000000;stroke-width:1;stroke-linecap:butt;stroke-linejoin:miter;stroke-miterlimit:4;stroke-dasharray:none;stroke-opacity:1" d="M -632.79591,620.66242 L -632.4687,589.91519 L -629.36024,588.56268 C -618.78055,588.74301 -610.1641,590.36603 -603.51089,593.43174 L -599.74801,623.00678 L -603.51089,624.6298 L -632.79591,620.66242 z M -623.13644,593.85423 L -622.00427,612.69211 L -608.45529,614.73278 L -609.52641,608.54197 L -620.49773,603.4936 L -610.76774,601.56737 L -611.63051,595.75136 C -615.46582,594.00603 -619.30113,593.66682 -623.13644,593.85423 z " sodipodi:nodetypes="ccccccccccccccc"/>
    <path style="fill:#bc9500;fill-opacity:1;fill-rule:evenodd;stroke:#000000;stroke-width:1;stroke-linecap:butt;stroke-linejoin:miter;stroke-miterlimit:4;stroke-dasharray:none;stroke-opacity:1" d="M -632.45193,590.01378 L -629.10014,588.58362 L -628.45141,619.09372 L -632.66817,620.70265 L -632.45193,590.01378 z " id="path2201"/>
    <path style="fill:#bc9500;fill-opacity:1;fill-rule:evenodd;stroke:#000000;stroke-width:1;stroke-linecap:butt;stroke-linejoin:miter;stroke-miterlimit:4;stroke-dasharray:none;stroke-opacity:1" d="M -623.2842,592.0936 L -623.23441,593.85704 C -620.04483,593.59224 -616.31623,593.77862 -611.60653,595.64792 L -610.81711,601.46563 L -608.03065,600.76718 L -609.271,594.47266 C -614.58551,592.05492 -618.96791,591.79719 -623.2842,592.0936 z " id="path2203" sodipodi:nodetypes="ccccccc"/>
    <path style="fill:#bc9500;fill-opacity:1;fill-rule:evenodd;stroke:#000000;stroke-width:1;stroke-linecap:butt;stroke-linejoin:miter;stroke-miterlimit:4;stroke-dasharray:none;stroke-opacity:1" d="M -620.02964,603.53264 L -609.57845,607.97838 L -608.27741,614.87771 L -605.50235,615.41264 L -607.37573,605.90356 L -620.02964,603.53264 z " id="path2205" sodipodi:nodetypes="cccccc"/>
    <path style="fill:#377cff;fill-opacity:1;fill-rule:evenodd;stroke:#000000;stroke-width:2;stroke-linecap:butt;stroke-linejoin:miter;stroke-miterlimit:4;stroke-dasharray:none;stroke-opacity:1" d="M -701.36281,640.3391 C -670.33138,643.48191 -632.55313,638.44019 -583.4583,641.70971 C -569.95014,642.6093 -552.76847,642.74332 -539.4337,632.57049 C -537.05482,630.75568 -533.14836,625.53394 -543.48498,623.89174 C -546.36324,622.84781 -546.35209,629.17229 -572.70917,625.8106 C -606.92404,621.4467 -641.30099,609.5761 -670.79497,607.17025 C -700.28895,604.76441 -725.14777,604.61973 -736.9693,618.13516 C -747.49567,630.16986 -732.39423,637.19629 -701.36281,640.3391 z " id="path1308" sodipodi:nodetypes="csscszsz"/>
    <path style="fill:url(#linearGradient5544);fill-opacity:1;fill-rule:evenodd;stroke:#000000;stroke-width:2;stroke-linecap:butt;stroke-linejoin:miter;stroke-miterlimit:4;stroke-dasharray:none;stroke-opacity:1" d="M -702.85753,612.35396 C -712.53043,612.69335 -722.51644,612.98407 -731.62252,617.12879 C -734.92999,618.53333 -737.45659,621.6045 -738.78693,625.4098 C -740.78274,629.72331 -740.39459,635.53228 -737.23497,638.96158 C -731.71488,645.24112 -723.93347,647.44556 -716.71404,649.56397 C -693.00876,655.88604 -668.48642,653.97679 -644.37151,653.28393 C -623.3378,652.4978 -602.25935,652.65113 -581.27735,654.69317 C -555.01979,653.5807 -545.14996,647.94523 -538.6856,632.14039 C -555.79749,638.34937 -557.95771,642.64765 -589.44004,636.48451 C -615.06304,630.03402 -639.74631,618.64068 -665.80564,614.68372 C -678.08447,613.13192 -690.48677,612.18385 -702.85753,612.35396 z " id="path2237" sodipodi:nodetypes="ccccccccccc"/>
    <path style="fill:none;fill-rule:evenodd;stroke:#000000;stroke-width:2;stroke-linecap:butt;stroke-linejoin:miter;stroke-opacity:1;stroke-miterlimit:4;stroke-dasharray:none" d="M -608.18028,491.50501 C -609.41656,488.08009 -610.87671,484.6103 -609.53278,482.75472 C -607.78075,480.3357 -603.56628,479.34914 -605.49218,485.72817" id="path5447" sodipodi:nodetypes="csc"/>
  </g>
  <g inkscape:groupmode="layer" id="layer2" inkscape:label="wyz">
    <path style="fill:#000000" d="M 104.78547,302.04167 C 98.758606,300.70571 93.480006,297.21963 89.069326,293.03877 C 84.619946,292.18727 89.193036,303.04157 83.720656,298.8575 C 75.120166,294.86068 66.591806,290.27053 60.028426,283.27176 C 57.093226,280.64409 54.148326,276.78896 51.054246,275.17425 C 51.012396,277.68209 50.592236,283.47312 47.557046,279.07348 C 43.005146,273.88819 39.679106,267.64059 38.507106,260.79997 C 37.236066,255.75533 36.335776,250.33253 35.587776,245.35876 C 33.444496,247.451 29.552856,252.37317 29.918226,246.06396 C 29.489076,235.47664 30.753506,223.99953 37.999686,215.69019 C 41.036706,211.5472 45.524926,208.65229 48.362846,204.38701 C 44.275316,201.79903 48.946116,197.77022 52.067096,196.14924 C 53.672716,195.31031 61.067356,190.33358 67.971836,189.56443 C 72.833866,173.28778 92.743546,168.10932 97.029696,167.27245 C 103.69509,165.97103 107.02308,164.48645 127.14365,167.77894 C 140.29273,169.93063 153.68156,187.2686 156.94404,195.75966 C 163.45075,199.78268 169.58482,204.6134 173.77987,211.12217 C 175.51893,212.89966 178.89699,219.45888 173.98485,215.64328 C 172.58271,213.9272 167.41485,211.99433 166.79526,213.32951 C 173.02475,219.19739 174.94204,227.96919 176.05991,236.12574 C 176.81008,244.21555 177.32073,252.512 175.68815,260.52015 C 173.90876,265.49584 171.47538,253.70189 170.28356,259.71303 C 167.79569,267.50075 164.41079,275.07801 159.93457,281.92766 C 156.84296,284.69151 156.22802,273.08379 153.40306,279.52317 C 149.15056,284.9465 145.56678,290.97766 140.55642,295.75894 C 138.09482,295.30002 138.30573,291.13149 137.64028,288.88435 C 137.78509,286.0647 136.28938,287.82918 135.0376,288.91204 C 127.41019,295.31631 118.98931,302.44318 108.49657,302.47055 C 107.24952,302.44821 106.00472,302.30443 104.78547,302.04167 z " id="path2288" sodipodi:nodetypes="cccccccccccccsscccccccccccccc"/>
    <path style="fill:#ffffff" d="M 119.82792,297.68753 C 126.19525,294.58523 131.17182,289.48868 136.78011,285.31233 C 140.53314,284.35255 138.51156,297.08056 142.83027,290.79862 C 147.1322,285.70113 150.83876,280.14049 154.70277,274.72401 C 158.09942,271.8982 157.95132,283.98114 160.68075,277.94013 C 164.2588,271.02537 167.40417,263.85062 169.6448,256.39093 C 171.4577,251.86007 174.7792,262.56464 174.909,256.0205 C 176.5529,244.10913 174.743,231.73767 170.22703,220.62589 C 169.67864,217.30636 165.50667,215.30005 165.06167,212.71936 C 167.45585,211.40853 170.32094,211.78478 172.95475,211.43753 C 167.1531,206.02471 161.92382,199.10579 153.88981,197.102 C 149.63629,196.16601 145.49404,197.82331 141.54493,199.21702 C 147.02662,201.22292 152.74511,204.35552 154.69976,210.25517 C 158.18781,218.86871 153.23087,229.72243 144.26053,232.39536 C 140.50218,232.87521 134.66022,232.4887 137.07133,238.24489 C 139.47207,242.46084 140.78382,247.59413 135.46733,250.34823 C 129.89122,253.98448 121.82123,255.51045 116.31665,250.87269 C 113.2342,248.44158 109.21568,244.48857 105.92167,249.06892 C 98.809206,254.16671 87.622996,255.69583 81.116616,248.79674 C 79.928766,247.67772 78.115216,246.64025 79.915646,245.1317 C 82.303296,241.55548 83.646206,236.77383 82.238686,232.63988 C 77.396216,230.94462 71.493246,230.34698 68.367086,225.5166 C 62.073026,217.82619 64.075576,205.37288 72.200126,199.79048 C 73.692876,197.48038 78.784156,197.54978 79.443766,196.21344 C 73.731846,193.35844 66.845096,191.54111 60.652696,194.01101 C 56.017266,195.44346 51.688546,197.95012 48.614446,201.74847 C 50.823446,201.92685 55.076266,204.74985 50.780086,205.41641 C 44.632546,210.1062 39.387066,216.12133 35.492056,222.80009 C 31.145496,229.53836 32.293126,237.74912 31.728206,245.35598 C 31.341036,247.77909 33.128776,244.22611 33.819466,243.68753 C 34.984836,240.95206 38.375166,240.38436 37.745996,244.21655 C 37.861396,255.80755 40.800526,267.78065 47.809876,277.17926 C 48.944676,279.2775 49.608926,279.62778 49.459926,276.95707 C 49.484616,274.36485 49.965166,268.42415 52.895946,272.93141 C 58.213586,279.49829 63.925216,285.9289 71.305166,290.24733 C 75.880186,293.05944 80.636596,295.57969 85.458856,297.93753 C 86.608366,295.40152 84.115406,287.28894 88.143046,288.81489 C 93.118006,295.79347 101.46012,301.05309 110.24141,300.76817 C 113.64163,300.56898 116.83483,299.22119 119.82792,297.68753 z " id="path2286"/>
    <path style="fill:#ffffff" d="M 100.41334,250.34451 C 104.04587,248.87673 107.02206,246.29682 109.77201,243.57625 C 114.59874,248.40025 121.01767,253.10559 128.23609,251.55155 C 132.02366,250.4677 139.40927,248.15012 137.39677,243.10566 C 133.30247,237.26573 136.39361,229.12916 132.43329,223.20738 C 129.02124,218.78211 123.18852,218.65124 118.50084,220.91458 C 110.65517,223.24897 102.15262,221.11969 95.517396,216.58581 C 90.959146,216.05105 87.019256,221.15171 85.176726,224.91471 C 82.571816,231.20047 85.135396,238.41361 82.317206,244.58876 C 79.651396,248.4041 86.053426,250.65384 88.986366,251.41869 C 92.784926,252.24688 96.825516,251.81598 100.41334,250.34451 z " id="path2284"/>
    <path style="fill:#ffe7c6;fill-opacity:1" d="M 145.51481,229.97371 C 152.53076,226.83939 156.89552,217.6521 152.92193,210.59274 C 150.88343,205.66931 146.32084,201.8563 140.87756,201.59436 C 136.98892,201.31803 131.21959,201.10232 129.37864,205.19827 C 130.70452,209.72362 128.26343,214.12239 127.18197,217.80877 C 132.70567,218.32367 135.77545,224.44987 136.60814,229.3637 C 137.69295,234.09228 142.77981,231.04728 145.51481,229.97371 z " id="path2282"/>
    <path style="fill:#ffe7c6;fill-opacity:1" d="M 82.785466,227.30556 C 83.233186,221.59564 87.746926,217.37968 92.094676,214.24994 C 93.779086,210.09983 94.647566,203.52337 89.601536,201.31007 C 82.461756,195.94518 71.071666,199.07111 67.689346,207.34207 C 62.609586,216.24769 69.131306,229.33642 79.517606,229.93753 C 81.336446,230.21245 83.247816,229.49604 82.785466,227.30556 z " id="path2280"/>
    <path style="fill:#ffe7c6;fill-opacity:1" d="M 121.64222,218.01062 C 125.55898,216.54901 129.00618,212.77914 127.8538,208.34293 C 125.96471,201.66996 118.15383,198.9653 111.85222,198.93753 C 105.37687,198.92193 97.242296,201.10765 95.039246,207.98947 C 93.744246,214.0835 100.11378,218.47164 105.38857,219.4269 C 110.74949,220.24292 116.59513,220.18645 121.64222,218.01062 z " id="path2278"/>
    <path style="fill:#ffe7c6;fill-opacity:1" d="M 100.39454,199.95019 C 106.60796,196.40567 114.43514,195.84178 120.86304,199.17317 C 125.30673,202.51224 130.36824,202.58838 135.07049,199.85394 C 137.52597,199.61766 142.06851,197.92785 137.36125,196.4515 C 134.71165,195.13621 128.9603,191.68066 129.54246,197.31694 C 127.498,202.09288 122.24545,198.55397 120.70012,195.56367 C 118.21409,198.95877 116.5828,194.54697 119.97554,193.57975 C 124.4528,190.34066 130.41553,190.28973 135.1165,193.10641 C 136.06212,193.36349 139.33069,195.75675 138.47458,194.35699 C 135.64671,189.80996 132.30993,184.05954 126.37066,183.76753 C 121.29667,183.89831 119.62919,189.41292 116.46989,192.33325 C 111.56086,194.18194 114.6817,185.43872 114.88712,182.80727 C 116.14526,178.29518 117.9015,172.91324 122.67966,171.07236 C 122.68878,168.34071 115.41444,169.52473 112.70926,169.01874 C 109.60396,168.98485 106.4985,168.96543 103.39314,168.93753 C 107.01098,172.85052 111.66676,176.70778 111.6778,182.51395 C 111.42784,185.47664 113.27759,193.32427 108.49835,192.32062 C 104.12778,189.96989 101.50481,184.32545 96.179196,183.96354 C 93.113196,184.33132 88.084476,187.26164 88.901176,190.43389 C 93.590296,190.83839 98.441016,190.48446 102.96205,192.15265 C 105.11997,191.87382 110.4347,196.32672 105.61477,195.68703 C 102.82095,194.55447 97.115676,190.50097 97.438216,196.43654 C 94.788906,201.31665 89.075226,198.29185 89.415566,193.50207 C 86.880256,192.83535 84.304936,194.80105 81.787946,195.43529 C 81.130756,196.12037 85.491066,196.60832 86.381166,197.42517 C 90.862806,198.83854 93.965806,205.54219 98.642836,200.83438 C 99.227316,200.5408 99.811216,200.24601 100.39454,199.95019 z " id="path2276"/>
    <path style="fill:#ffffff" d="M 143.85041,194.00246 C 140.54291,190.14134 140.18367,184.87237 139.09396,180.18114 C 136.18948,174.25051 128.11415,169.52888 121.89801,173.42128 C 117.18006,177.07842 115.89228,183.51811 115.18917,189.1145 C 116.22938,193.9795 118.07195,185.60277 120.29566,185.03239 C 123.26495,181.77068 128.58549,180.84123 132.08335,183.82133 C 136.59656,186.76512 137.99518,192.55873 142.30353,195.63153 C 144.22742,196.17226 146.8039,196.36022 143.85041,194.00246 z " id="path2274"/>
    <path style="fill:#ffe7c6;fill-opacity:1" d="M 151.59944,190.75128 C 148.19039,185.02064 143.42435,180.30641 138.93208,175.43753 C 140.80946,181.24068 141.92415,187.38959 144.90014,192.75611 C 146.93133,195.71407 150.83688,194.71748 153.91343,194.93753 C 153.1421,193.54211 152.37077,192.1467 151.59944,190.75128 z " id="path2272"/>
    <path style="fill:#ffe7c6;fill-opacity:1" d="M 80.631326,187.37645 C 81.770406,182.8371 83.784846,178.60711 85.448316,174.26704 C 81.678496,175.17506 78.737166,178.45055 75.759156,180.88507 C 73.104646,183.38904 66.882446,189.94231 72.790716,191.96603 C 76.129196,192.81254 79.360106,190.33328 80.631326,187.37645 z " id="path2268"/>
    <path style="fill:#ffffff;fill-opacity:1" d="M 87.519476,188.02 C 90.312726,184.56427 94.989796,180.50335 99.672076,182.98807 C 103.75862,183.90934 105.86055,191.25046 109.74002,189.93753 C 112.07617,184.97787 109.66314,179.16487 106.87042,174.88906 C 103.94869,170.10298 97.284076,168.51335 92.539986,171.56511 C 87.566486,173.96412 84.724516,178.94503 83.447166,184.12861 C 83.357806,187.31364 79.414106,190.76948 79.570936,192.89605 C 83.044266,193.48762 85.428236,190.22634 87.519476,188.02 z " id="path2266"/>
  </g>
</svg>